<svg xmlns="http://www.w3.org/2000/svg" width="67.914" height="67.914" viewBox="0 0 67.914 67.914">
  <g id="Grupo_21" data-name="Grupo 21" transform="translate(-684.799 -877.956)">
    <path id="Caminho_38" data-name="Caminho 38" d="M47.331,8.121A27.728,27.728,0,0,0,3.483,41.187.812.812,0,1,0,4.9,40.4a26.127,26.127,0,1,1,2.313,3.474.812.812,0,0,0-1.276,1.006A27.726,27.726,0,1,0,47.331,8.121Z" transform="matrix(0.259, 0.966, -0.966, 0.259, 738.361, 877.956)" fill="#fff"/>
    <rect id="Retângulo_22" data-name="Retângulo 22" width="17.644" height="1.467" transform="translate(724.314 903.664) rotate(-47)" fill="#fff"/>
    <path id="Caminho_41" data-name="Caminho 41" d="M0,0,14,.124l.277,1.343H0Z" transform="translate(699.651 930.112) rotate(-47)" fill="#fff"/>
    <g id="Bread" transform="translate(701.535 902.177)">
      <path id="Caminho_35" data-name="Caminho 35" d="M28.737,17.031a.588.588,0,0,0-.482,0,.6.6,0,0,0-.316.373l-.1.4a20.3,20.3,0,0,0-2.181-.746l.143-.522a.584.584,0,0,0-.408-.706,23.488,23.488,0,0,0-4.058-.7.581.581,0,0,0-.6.425l-.178.672c-.809-.04-1.6-.052-2.371-.017l.109-.4a.583.583,0,0,0-.591-.723,23.936,23.936,0,0,0-4.431.689.581.581,0,0,0-.413.408l-.247.93a20.41,20.41,0,0,0-2.629.959l.029-.109a.531.531,0,0,0,.023-.166.571.571,0,0,0-.5-.568.584.584,0,0,0-.4.092C4.663,19.563,2,23.213,2,27.088c0,6.9,7.8,7.462,17.22,7.462s17.22-.563,17.22-7.462C36.44,23.03,33.559,19.27,28.737,17.031Zm-3.754,2.537.373-1.395a19.8,19.8,0,0,1,2.175.752l-.333,1.24a1.106,1.106,0,0,1-.534.695,1.133,1.133,0,0,1-.872.115,1.106,1.106,0,0,1-.695-.534,1.13,1.13,0,0,1-.115-.872Zm-7.118-2.2a23.592,23.592,0,0,1,2.382-.017L19.14,21.485a1.152,1.152,0,0,1-1.406.815,1.106,1.106,0,0,1-.695-.534,1.13,1.13,0,0,1-.115-.872ZM9.462,20l.126-.482a19.042,19.042,0,0,1,2.669-1.114L11.672,20.6A1.144,1.144,0,1,1,9.462,20ZM19.22,33.4c-10.424,0-16.072-1-16.072-6.314,0-3.111,2-6.09,5.407-8.145l-.207.763a2.3,2.3,0,0,0,4.437,1.188L13.876,16.8a21.878,21.878,0,0,1,3.094-.511L15.811,20.6a2.3,2.3,0,1,0,4.443,1.188l1.464-5.47a22.032,22.032,0,0,1,2.818.482L23.87,19.27a2.3,2.3,0,0,0,4.443,1.194l.557-2.089c4.035,2.066,6.423,5.287,6.423,8.713C35.292,32.4,29.644,33.4,19.22,33.4Z" transform="translate(-2 -15.079)" fill="#fff"/>
    </g>
  </g>
</svg>
