<svg xmlns="http://www.w3.org/2000/svg" width="67.914" height="67.914" viewBox="0 0 67.914 67.914">
  <g id="Grupo_22" data-name="Grupo 22" transform="translate(-783.968 -1113.968)">
    <g id="Grupo_20" data-name="Grupo 20" transform="translate(783.968 1113.968)">
      <g id="_001-milk" data-name="001-milk" transform="translate(24.819 16.511)">
        <g id="Grupo_13" data-name="Grupo 13" transform="translate(0 7.754)">
          <g id="Grupo_12" data-name="Grupo 12">
            <path id="Caminho_26" data-name="Caminho 26" d="M115.693,95.573H102.955a.554.554,0,0,0-.554.554v26.03a.554.554,0,0,0,.554.554h12.738a.554.554,0,0,0,.554-.554V96.127A.554.554,0,0,0,115.693,95.573Zm-.554,26.03H103.509V96.681h11.631Z" transform="translate(-102.401 -95.573)" fill="#fff"/>
          </g>
        </g>
        <g id="Grupo_15" data-name="Grupo 15" transform="translate(0 3.323)">
          <g id="Grupo_14" data-name="Grupo 14">
            <path id="Caminho_27" data-name="Caminho 27" d="M118.379,41.223a.554.554,0,0,0-.471-.263H105.17a.554.554,0,0,0-.5.306L102.459,45.7a.554.554,0,0,0,.5.8h12.738a.554.554,0,0,0,.5-.306l2.215-4.431A.553.553,0,0,0,118.379,41.223Zm-3.029,4.168h-11.5l1.662-3.323h11.5Z" transform="translate(-102.401 -40.96)" fill="#fff"/>
          </g>
        </g>
        <g id="Grupo_17" data-name="Grupo 17" transform="translate(2.215)">
          <g id="Grupo_16" data-name="Grupo 16">
            <path id="Caminho_28" data-name="Caminho 28" d="M143,0H130.262a.554.554,0,0,0-.554.554V3.877a.554.554,0,0,0,.554.554H143a.554.554,0,0,0,.554-.554V.554A.554.554,0,0,0,143,0Zm-.554,3.323H130.816V1.108h11.631Z" transform="translate(-129.708)" fill="#fff"/>
          </g>
        </g>
        <g id="Grupo_19" data-name="Grupo 19" transform="translate(12.738 3.897)">
          <g id="Grupo_18" data-name="Grupo 18" transform="translate(0)">
            <path id="Caminho_29" data-name="Caminho 29" d="M264.879,52.173,262.664,48.3a.576.576,0,0,0-.962,0l-2.215,3.877a.558.558,0,0,0-.073.275v26.03a.554.554,0,0,0,.554.554H264.4a.553.553,0,0,0,.554-.554V52.448A.556.556,0,0,0,264.879,52.173Zm-1.035,25.751h-3.323V52.595l1.661-2.908,1.661,2.908Z" transform="translate(-259.414 -48.037)" fill="#fff"/>
          </g>
        </g>
      </g>
      <path id="Caminho_37" data-name="Caminho 37" d="M47.331,8.121A27.728,27.728,0,0,0,3.483,41.187.812.812,0,0,0,4.9,40.4a26.127,26.127,0,1,1,2.313,3.474.812.812,0,0,0-1.276,1.006A27.726,27.726,0,1,0,47.331,8.121Z" transform="matrix(0.259, 0.966, -0.966, 0.259, 53.562, 0)" fill="#fff"/>
    </g>
    <path id="Caminho_39" data-name="Caminho 39" d="M0,0H15.041l-.178,1.635L0,1.719Z" transform="translate(798.236 1166.828) rotate(-45)" fill="#fff"/>
    <path id="Caminho_40" data-name="Caminho 40" d="M.331,0H15.587V1.719L0,1.758Z" transform="translate(825.807 1139.257) rotate(-45)" fill="#fff"/>
  </g>
</svg>
