<svg xmlns="http://www.w3.org/2000/svg" width="54.974" height="54.974" viewBox="0 0 54.974 54.974">
  <path id="gluten-free" d="M46.923,8.051A27.484,27.484,0,0,0,8.844,7.29.806.806,0,0,0,9.937,8.474a25.871,25.871,0,0,1,35.268.156L33.283,20.552a7.317,7.317,0,0,0-4.991,2.468V20.666c.938-.8,3.589-3.326,3.589-6.441,0-3.7-3.749-6.58-3.909-6.7a.805.805,0,0,0-.971,0c-.16.121-3.909,3-3.909,6.7,0,3.115,2.651,5.644,3.589,6.441v2.355c-1.793-2.281-5.209-2.858-7.947-2.476a.805.805,0,0,0-.687.687c-.028.2-.645,4.883,1.974,7.5a6.912,6.912,0,0,0,3.323,1.756l-1.122,1.122a11.362,11.362,0,0,0-3.489-.054.805.805,0,0,0-.687.687,12.555,12.555,0,0,0,.089,3.513.806.806,0,0,0-.21.151l-9.3,9.3a25.877,25.877,0,0,1-1.5-33.7.806.806,0,0,0-1.266-1A27.49,27.49,0,0,0,8.051,46.923,27.487,27.487,0,0,0,46.923,8.051ZM29.876,23.658c1.559-1.559,4.279-1.628,5.507-1.569a11.621,11.621,0,0,1-.042,1.7,6.334,6.334,0,0,1-1.528,3.809,6.709,6.709,0,0,1-4.392,1.57l2.632-2.608a.805.805,0,0,0-1.134-1.144L28.309,28a6.667,6.667,0,0,1,1.567-4.341ZM24.7,14.224c0-2.2,1.873-4.175,2.784-5,.911.828,2.784,2.8,2.784,5a6.688,6.688,0,0,1-1.979,4.2v-4.2a.805.805,0,0,0-1.611,0v4.2A6.688,6.688,0,0,1,24.7,14.224Zm-5.111,7.865c1.23-.059,3.947.01,5.506,1.569A6.667,6.667,0,0,1,26.666,28l-2.61-2.587a.805.805,0,0,0-1.134,1.144l2.633,2.609c-.187-.009-.382-.022-.585-.042a6.334,6.334,0,0,1-3.809-1.528c-1.559-1.558-1.628-4.276-1.569-5.506Zm5.748,8.683c.453.024.9.025,1.341.005v3.256A6.3,6.3,0,0,0,24,32.109ZM19.592,33.1c1.23-.059,3.947.01,5.506,1.569a6.726,6.726,0,0,1,1.571,4.416L24.055,36.5a.806.806,0,0,0-1.134,1.144l2.557,2.534a6.567,6.567,0,0,1-4.318-1.567c-1.558-1.559-1.627-4.276-1.569-5.506ZM45.785,45.785a25.875,25.875,0,0,1-36.016.56L18.608,37.5c1.282,3.34,4.767,4.433,8.074,4.285v5.018a.805.805,0,1,0,1.611,0V41.79c2.58.115,5.548-.468,7.186-2.653a.806.806,0,0,0-1.289-.966,6.113,6.113,0,0,1-4.693,2l2.556-2.533A.806.806,0,0,0,30.919,36.5L28.3,39.087c.009-.194.022-.4.043-.608a6.334,6.334,0,0,1,1.528-3.809c1.559-1.559,4.279-1.627,5.507-1.569a11.728,11.728,0,0,1-.02,1.451.806.806,0,0,0,1.606.123,12.461,12.461,0,0,0-.043-2.432.805.805,0,0,0-.687-.687c-2.739-.381-6.154.195-7.947,2.476V30.777c2.316.1,4.956-.34,6.659-2.044,2.619-2.619,2-7.3,1.974-7.5-.091-.657-.795-.712-1.3-.744L46.344,9.769a25.874,25.874,0,0,1-.56,36.016Z" transform="translate(0)" fill="#fff"/>
</svg>
