<svg id="_002-plant-based" data-name="002-plant-based" xmlns="http://www.w3.org/2000/svg" width="54.974" height="54.974" viewBox="0 0 54.974 54.974">
  <path id="Caminho_31" data-name="Caminho 31" d="M46.923,8.051A27.489,27.489,0,0,0,3.453,40.832a.805.805,0,1,0,1.407-.783,25.9,25.9,0,1,1,2.293,3.444.805.805,0,0,0-1.265,1A27.487,27.487,0,1,0,46.923,8.051Z" fill="#fff"/>
  <path id="Caminho_32" data-name="Caminho 32" d="M121.731,110.8a19.266,19.266,0,0,0-11.782-.836,11.692,11.692,0,0,0-7.135,5.512,8.277,8.277,0,0,0-.609,7.426,7.388,7.388,0,0,0,2.91,3.167c-.012.281-.018.569-.018.865v6.54a14.149,14.149,0,0,0-1.447-1.869,5.907,5.907,0,0,0-2.869-7.48,9.715,9.715,0,0,0-7.307-.314,11.774,11.774,0,0,0-5.811,4.07.805.805,0,0,0,.56,1.244c1.761.242,2.683,1.361,3.75,2.656,1.235,1.5,2.635,3.2,5.509,3.542a5.826,5.826,0,0,0,5.185-2.072c.047-.056.091-.115.136-.172a10.641,10.641,0,0,1,2.172,3.942.8.8,0,0,0,.124.257v4.929a.805.805,0,1,0,1.611,0V126.934c0-.047,0-.092,0-.138a7.674,7.674,0,0,0,2.383.383c.218,0,.436-.01.655-.029,3.056-.271,5.635-2.429,6.9-5.774.11-.292.218-.607.33-.964a.805.805,0,0,0-1.537-.482c-.1.327-.2.614-.3.877-1.04,2.752-3.108,4.524-5.534,4.739a6.024,6.024,0,0,1-2.809-.444c.534-5.333,3.319-6.844,3.461-6.917a.805.805,0,0,0-.718-1.442c-.159.078-3.437,1.763-4.257,7.477a5.62,5.62,0,0,1-1.62-2,6.682,6.682,0,0,1,.561-5.961,10.073,10.073,0,0,1,6.154-4.738,17.128,17.128,0,0,1,9.418.326,11.785,11.785,0,0,0-2.646,3.27.805.805,0,1,0,1.419.761,10.9,10.9,0,0,1,3.349-3.66.806.806,0,0,0,.346-.849.847.847,0,0,0-.533-.565ZM97.673,133.725c-2.234-.268-3.314-1.579-4.458-2.967a8.613,8.613,0,0,0-3.428-2.88,11.1,11.1,0,0,1,4.205-2.541,8.062,8.062,0,0,1,6.053.222,4.3,4.3,0,0,1,2.311,4.8,11.8,11.8,0,0,0-5.591-2.785.805.805,0,1,0-.258,1.59,10.449,10.449,0,0,1,5.164,2.742c-.075.108-.154.214-.24.317A4.187,4.187,0,0,1,97.673,133.725Z" transform="translate(-78.128 -97.648)" fill="#fff"/>
</svg>
